<svg width="165" height="24" viewBox="0 0 165 24" fill="none" xmlns="http://www.w3.org/2000/svg">
<path d="M58.1446 18.988C56.8395 18.988 55.6541 18.6876 54.5885 18.0869C53.5229 17.4741 52.6848 16.6391 52.0742 15.5818C51.4635 14.5245 51.1582 13.347 51.1582 12.0494C51.1582 10.7518 51.4635 9.57433 52.0742 8.51702C52.6848 7.45971 53.5229 6.63068 54.5885 6.02994C55.6541 5.42919 56.8395 5.12882 58.1446 5.12882C59.4497 5.12882 60.635 5.42919 61.7006 6.02994C62.7662 6.63068 63.6044 7.45971 64.215 8.51702C64.8376 9.57433 65.1489 10.7518 65.1489 12.0494C65.1489 13.347 64.8376 14.5245 64.215 15.5818C63.6044 16.6391 62.7662 17.4741 61.7006 18.0869C60.635 18.6876 59.4497 18.988 58.1446 18.988ZM53.6007 12.0494C53.6007 12.9385 53.7983 13.7435 54.1934 14.4644C54.5885 15.1853 55.1273 15.75 55.8098 16.1585C56.5042 16.555 57.2825 16.7532 58.1446 16.7532C59.0066 16.7532 59.7789 16.555 60.4614 16.1585C61.1558 15.75 61.7006 15.1853 62.0957 14.4644C62.4909 13.7435 62.6884 12.9385 62.6884 12.0494C62.6884 11.1603 62.4909 10.3613 62.0957 9.65243C61.7006 8.93153 61.1558 8.37284 60.4614 7.97635C59.7789 7.56784 59.0066 7.36359 58.1446 7.36359C57.2825 7.36359 56.5042 7.56784 55.8098 7.97635C55.1273 8.37284 54.5885 8.93153 54.1934 9.65243C53.7983 10.3613 53.6007 11.1603 53.6007 12.0494Z" fill="#0D3380"/>
<path d="M67.3477 8.96758H69.5568V10.121C69.916 9.68847 70.359 9.35205 70.8858 9.11176C71.4246 8.87146 72.0293 8.75131 72.6998 8.75131C73.6097 8.75131 74.4419 8.97959 75.1962 9.43616C75.9505 9.88071 76.5432 10.4935 76.9742 11.2744C77.4052 12.0554 77.6207 12.9205 77.6207 13.8697C77.6207 14.8188 77.4052 15.6839 76.9742 16.4649C76.5432 17.2458 75.9505 17.8646 75.1962 18.3212C74.4538 18.7657 73.6157 18.988 72.6818 18.988C72.0831 18.988 71.5264 18.8919 71.0115 18.6996C70.4967 18.4954 70.0597 18.207 69.7005 17.8346V22.3762H67.3477V8.96758ZM69.7005 13.8697C69.7005 14.4344 69.8142 14.945 70.0417 15.4015C70.2812 15.8461 70.6044 16.1945 71.0115 16.4468C71.4306 16.6992 71.8976 16.8253 72.4124 16.8253C73.2146 16.8253 73.8731 16.549 74.388 15.9963C74.9148 15.4316 75.1782 14.7227 75.1782 13.8697C75.1782 13.317 75.0585 12.8183 74.819 12.3738C74.5795 11.9172 74.2503 11.5628 73.8312 11.3105C73.4122 11.0462 72.9392 10.914 72.4124 10.914C71.8976 10.914 71.4306 11.0401 71.0115 11.2925C70.6044 11.5448 70.2812 11.8992 70.0417 12.3558C69.8142 12.8003 69.7005 13.305 69.7005 13.8697Z" fill="#0D3380"/>
<path d="M84.2726 18.988C83.2908 18.988 82.4168 18.7597 81.6505 18.3031C80.8962 17.8466 80.3035 17.2278 79.8725 16.4468C79.4534 15.6659 79.2439 14.8008 79.2439 13.8516C79.2439 12.8904 79.4534 12.0254 79.8725 11.2564C80.3035 10.4754 80.8842 9.86269 81.6146 9.41813C82.3569 8.97358 83.1831 8.75131 84.093 8.75131C85.0748 8.75131 85.9249 8.96758 86.6433 9.40011C87.3617 9.82063 87.9065 10.3973 88.2777 11.1303C88.6608 11.8632 88.8524 12.6682 88.8524 13.5452C88.8524 13.9538 88.8105 14.2842 88.7267 14.5365H81.6864C81.7582 15.2574 82.0336 15.8341 82.5126 16.2666C82.9915 16.6992 83.5842 16.9154 84.2906 16.9154C84.8174 16.9154 85.2664 16.8073 85.6376 16.591C86.0207 16.3627 86.326 16.0504 86.5535 15.6539L88.4573 16.591C88.1579 17.3119 87.6311 17.8946 86.8768 18.3392C86.1225 18.7717 85.2544 18.988 84.2726 18.988ZM86.338 12.7342C86.2781 12.1335 86.0447 11.6469 85.6376 11.2744C85.2305 10.89 84.7156 10.6977 84.093 10.6977C83.4944 10.6977 82.9855 10.8779 82.5664 11.2384C82.1474 11.5868 81.872 12.0854 81.7403 12.7342H86.338Z" fill="#0D3380"/>
<path d="M90.8604 8.96758H93.0694V10.1751C93.3209 9.71851 93.6861 9.37008 94.165 9.12978C94.6559 8.87747 95.2126 8.75131 95.8352 8.75131C96.5417 8.75131 97.1762 8.9075 97.739 9.21989C98.3017 9.53228 98.7387 9.97082 99.05 10.5355C99.3614 11.1002 99.517 11.743 99.517 12.4639V18.7717H97.1643V13.0226C97.1643 12.3858 96.9787 11.8752 96.6075 11.4907C96.2483 11.1062 95.7754 10.914 95.1887 10.914C94.602 10.914 94.1231 11.1062 93.7519 11.4907C93.3927 11.8752 93.2131 12.3858 93.2131 13.0226V18.7717H90.8604V8.96758Z" fill="#0D3380"/>
<path d="M105.345 5.34509H109.709C111.11 5.34509 112.337 5.62744 113.391 6.19214C114.445 6.75684 115.259 7.54982 115.834 8.57109C116.408 9.58034 116.696 10.7398 116.696 12.0494C116.696 13.347 116.408 14.5064 115.834 15.5277C115.259 16.549 114.439 17.348 113.373 17.9247C112.32 18.4894 111.098 18.7717 109.709 18.7717H105.345V5.34509ZM109.763 16.609C110.661 16.609 111.445 16.4228 112.116 16.0504C112.798 15.6779 113.319 15.1492 113.678 14.4644C114.05 13.7675 114.235 12.9625 114.235 12.0494C114.235 11.1363 114.05 10.3373 113.678 9.65243C113.319 8.96758 112.798 8.43892 112.116 8.06646C111.445 7.694 110.661 7.50777 109.763 7.50777H107.788V16.609H109.763Z" fill="#0D3380"/>
<path d="M123.3 18.988C122.318 18.988 121.444 18.7597 120.678 18.3031C119.924 17.8466 119.331 17.2278 118.9 16.4468C118.481 15.6659 118.271 14.8008 118.271 13.8516C118.271 12.8904 118.481 12.0254 118.9 11.2564C119.331 10.4754 119.912 9.86269 120.642 9.41813C121.384 8.97358 122.211 8.75131 123.121 8.75131C124.102 8.75131 124.952 8.96758 125.671 9.40011C126.389 9.82063 126.934 10.3973 127.305 11.1303C127.688 11.8632 127.88 12.6682 127.88 13.5452C127.88 13.9538 127.838 14.2842 127.754 14.5365H120.714C120.786 15.2574 121.061 15.8341 121.54 16.2666C122.019 16.6992 122.612 16.9154 123.318 16.9154C123.845 16.9154 124.294 16.8073 124.665 16.591C125.048 16.3627 125.354 16.0504 125.581 15.6539L127.485 16.591C127.185 17.3119 126.659 17.8946 125.904 18.3392C125.15 18.7717 124.282 18.988 123.3 18.988ZM125.366 12.7342C125.306 12.1335 125.072 11.6469 124.665 11.2744C124.258 10.89 123.743 10.6977 123.121 10.6977C122.522 10.6977 122.013 10.8779 121.594 11.2384C121.175 11.5868 120.9 12.0854 120.768 12.7342H125.366Z" fill="#0D3380"/>
<path d="M133.552 18.97C132.57 18.97 131.702 18.7357 130.948 18.2671C130.205 17.7985 129.678 17.1557 129.367 16.3387L131.109 15.4376C131.373 15.9662 131.72 16.3808 132.151 16.6811C132.594 16.9695 133.079 17.1137 133.606 17.1137C134.061 17.1137 134.414 17.0236 134.665 16.8433C134.929 16.6511 135.06 16.3928 135.06 16.0684C135.06 15.792 134.953 15.5637 134.737 15.3835C134.522 15.1913 134.24 15.0651 133.893 15.0051L132.295 14.7347C131.468 14.5185 130.828 14.152 130.373 13.6354C129.93 13.1067 129.708 12.4879 129.708 11.7791C129.708 11.1903 129.864 10.6677 130.175 10.2111C130.487 9.74254 130.918 9.38209 131.468 9.12978C132.031 8.87747 132.666 8.75131 133.372 8.75131C134.27 8.75131 135.06 8.96758 135.743 9.40011C136.425 9.82063 136.922 10.4094 137.233 11.1663L135.491 12.0674C135.3 11.6469 135.006 11.3105 134.611 11.0582C134.216 10.8059 133.779 10.6797 133.3 10.6797C132.905 10.6797 132.588 10.7698 132.348 10.95C132.121 11.1303 132.007 11.3645 132.007 11.6529C132.007 12.1816 132.402 12.536 133.193 12.7162L134.755 13.0046C135.581 13.2329 136.222 13.6053 136.677 14.122C137.132 14.6386 137.359 15.2514 137.359 15.9602C137.359 16.549 137.198 17.0716 136.874 17.5282C136.563 17.9847 136.12 18.3392 135.545 18.5915C134.971 18.8438 134.306 18.97 133.552 18.97Z" fill="#0D3380"/>
<path d="M139.338 8.96758H141.691V18.7717H139.338V8.96758ZM139.158 6.26423C139.158 5.83169 139.278 5.49528 139.517 5.25498C139.757 5.01468 140.086 4.89453 140.505 4.89453C140.936 4.89453 141.272 5.01468 141.511 5.25498C141.75 5.49528 141.87 5.83169 141.87 6.26423C141.87 6.68475 141.75 7.01516 141.511 7.25546C141.284 7.49575 140.948 7.6159 140.505 7.6159C140.086 7.6159 139.757 7.49575 139.517 7.25546C139.278 7.01516 139.158 6.68475 139.158 6.26423Z" fill="#0D3380"/>
<path d="M148.829 22.7366C147.727 22.7366 146.757 22.4723 145.919 21.9437C145.093 21.427 144.524 20.7362 144.213 19.8711L146.404 19.0421C146.548 19.5106 146.835 19.8831 147.266 20.1594C147.697 20.4358 148.218 20.574 148.829 20.574C149.547 20.574 150.128 20.3697 150.571 19.9612C151.026 19.5527 151.253 18.994 151.253 18.2851V17.2218C150.559 17.9908 149.619 18.3752 148.434 18.3752C147.536 18.3752 146.722 18.165 145.991 17.7445C145.273 17.3239 144.71 16.7472 144.303 16.0143C143.896 15.2814 143.692 14.4584 143.692 13.5452C143.692 12.6321 143.89 11.8151 144.285 11.0942C144.692 10.3613 145.255 9.7906 145.973 9.38209C146.692 8.96157 147.494 8.75131 148.38 8.75131C149.637 8.75131 150.637 9.19586 151.379 10.085V8.96758H153.606V18.2851C153.606 19.1382 153.403 19.9011 152.995 20.574C152.588 21.2588 152.02 21.7875 151.289 22.1599C150.571 22.5444 149.751 22.7366 148.829 22.7366ZM146.135 13.5633C146.135 14.3202 146.374 14.951 146.853 15.4556C147.344 15.9482 147.967 16.1945 148.721 16.1945C149.463 16.1945 150.068 15.9482 150.535 15.4556C151.014 14.963 151.253 14.3322 151.253 13.5633C151.253 12.7943 151.014 12.1635 150.535 11.6709C150.056 11.1663 149.451 10.914 148.721 10.914C147.979 10.914 147.362 11.1663 146.871 11.6709C146.38 12.1756 146.135 12.8063 146.135 13.5633Z" fill="#0D3380"/>
<path d="M156.028 8.96758H158.237V10.1751C158.488 9.71851 158.854 9.37008 159.332 9.12978C159.823 8.87747 160.38 8.75131 161.003 8.75131C161.709 8.75131 162.344 8.9075 162.906 9.21989C163.469 9.53228 163.906 9.97082 164.218 10.5355C164.529 11.1002 164.685 11.743 164.685 12.4639V18.7717H162.332V13.0226C162.332 12.3858 162.146 11.8752 161.775 11.4907C161.416 11.1062 160.943 10.914 160.356 10.914C159.77 10.914 159.291 11.1062 158.919 11.4907C158.56 11.8752 158.381 12.3858 158.381 13.0226V18.7717H156.028V8.96758Z" fill="#0D3380"/>
<path fill-rule="evenodd" clip-rule="evenodd" d="M12 24C18.6274 24 24 18.6274 24 12C24 5.37259 18.6274 0 12 0C5.37259 0 0 5.37259 0 12C0 18.6274 5.37259 24 12 24ZM12.0001 16.737C14.6162 16.737 16.737 14.6162 16.737 12.0001C16.737 9.38404 14.6162 7.26328 12.0001 7.26328C9.38404 7.26328 7.26328 9.38404 7.26328 12.0001C7.26328 14.6162 9.38404 16.737 12.0001 16.737Z" fill="#1A66FF"/>
<path d="M38.9999 12C38.9999 18.6274 33.4354 24 26.5713 24V0C33.4354 0 38.9999 5.37259 38.9999 12Z" fill="#0D3380"/>
</svg>
